<svg width="715" height="349" viewBox="0 0 715 349" fill="none" xmlns="http://www.w3.org/2000/svg">
<path d="M214.921 83.067C214.934 83.5212 214.946 83.9755 214.704 85.1045C212.115 92.4502 217.811 100.159 223.77 104.057C230.384 108.383 237.906 109.72 245.679 110.03C247.316 110.095 249.083 110.216 250.541 110.868C258.322 114.35 266.562 117.185 273.625 121.802C283.736 128.414 292.734 136.43 298.66 147.538C303.399 156.42 306.444 165.517 308.588 175.406C311.83 190.361 308.495 203.968 303.65 217.623C301.78 222.893 299.27 227.935 297.052 233.081C297.052 233.081 297.026 233.023 296.735 233.131C294.817 235.668 293.19 238.096 291.562 240.524C291.562 240.524 291.154 240.278 290.978 240.374C287.668 241.294 285.389 242.84 285.673 246.549C285.673 246.549 285.518 246.487 285.293 246.574C284.808 246.965 284.549 247.27 284.29 247.575C284.29 247.574 284.241 247.262 284.137 247.421C283.767 247.901 283.5 248.222 283.233 248.543C283.233 248.543 283.323 248.374 283.04 248.396C281.276 249.79 279.794 251.161 278.312 252.532C278.312 252.532 278.336 252.433 278 252.376C276.16 252.898 274.487 253.222 273.179 254.094C258.838 263.657 243.118 267.549 225.996 265.726C221.652 265.264 217.33 264.585 213.172 263.699C214.906 262.924 216.467 262.456 218.489 261.984C227.5 260.921 236.066 259.974 244.584 258.704C246.158 258.47 247.538 256.932 249.138 255.811C249.27 255.627 249.678 255.431 249.678 255.431C249.678 255.431 250.129 255.473 250.562 255.574C256.631 254.844 261.724 253.053 264.889 247.87C264.909 247.917 264.828 247.853 265.197 247.861C269.775 246.06 273.878 244.136 275.018 239.027C274.999 239.004 275.05 239.034 275.311 238.92C275.859 238.336 276.146 237.866 276.44 237.374C276.447 237.353 276.489 237.336 276.796 237.488C278.227 237.146 279.635 236.917 280.403 236.092C281.373 235.049 281.675 233.416 282.521 232.218C289.156 222.83 292.786 212.557 294.558 201.053C296.838 186.24 294.1 172.838 287.372 159.91C286.398 158.038 284.536 156.627 282.949 154.922C282.812 154.843 282.786 154.527 282.675 154.249C282.299 153.672 282.034 153.374 281.817 153.085C281.865 153.094 281.845 153.189 281.85 152.857C281.041 151.672 280.228 150.82 279.226 149.815C279.037 149.662 278.919 149.19 278.917 148.821C278.054 146.923 277.457 145.138 276.277 143.917C273.671 141.223 270.328 139.144 268.128 136.187C266.239 133.647 264.364 133.514 261.88 134.105C261.914 134.088 261.9 134.161 261.805 133.822C260.09 132.694 258.47 131.906 256.884 131.103C256.918 131.088 256.946 131.158 256.78 130.851C256.174 130.053 255.827 129.294 255.284 129.109C249.7 127.214 244.084 125.412 238.477 123.584C227.63 120.049 216.833 122.246 206.258 124.584C202.209 125.479 198.723 128.918 194.944 131.267C194.908 131.336 194.767 131.268 194.473 131.279C193.81 131.402 193.44 131.516 192.706 131.733C189.309 133.458 186.433 135.64 183.2 136.545C179.92 137.463 179.519 139.179 179.871 142.022C179.794 142.166 179.49 142.29 179.225 142.383C178.727 142.763 178.494 143.049 178.218 143.248C178.175 143.16 178.299 143.311 177.954 143.326C176.89 144.359 176.171 145.376 175.448 146.42C175.445 146.446 175.392 146.454 175.166 146.533C174.657 146.808 174.506 147.078 174.421 147.371C174.355 147.318 174.452 147.457 174.111 147.503C171.096 151.548 168.421 155.546 165.404 159.602C164.37 159.712 163.678 159.765 162.727 159.664C160.831 158.976 159.195 158.443 157.323 157.834C159.671 151.562 166.018 147.618 165.455 140.52C165.455 140.52 165.482 140.591 165.791 140.523C167.07 138.964 168.04 137.472 169.009 135.979C169.009 135.979 169.02 136.012 169.328 135.985C175.697 133.86 179.143 129.142 177.349 124.533C175.219 119.062 173.288 113.909 178.778 109.273C179.017 109.071 179.13 108.72 179.302 108.439C179.302 108.439 179.403 108.471 179.387 108.887C180.812 110.339 182.254 111.375 183.696 112.411C184.468 110.543 185.693 108.733 185.94 106.797C188.022 90.497 197.174 76.9093 214.921 75.1107C214.921 77.7517 214.921 80.4093 214.921 83.067ZM270.113 250.16C270.637 249.685 271.162 249.211 271.687 248.736C271.45 248.53 271.212 248.324 270.975 248.118C270.588 248.703 270.2 249.289 270.113 250.16ZM295.938 225.766C296.064 225.772 296.001 225.769 295.938 225.766ZM281.762 146.064C281.89 145.975 282.018 145.886 282.146 145.797C282.021 145.822 281.896 145.847 281.762 146.064Z" fill="#45ED1E"/>
<path d="M448.362 207.692C448.459 197.928 444.247 192.572 435.092 191.942C424.697 191.227 414.242 191.408 403.813 191.18C401.675 191.133 399.54 190.999 396.903 190.884C396.903 186.17 396.903 181.77 396.903 176.816C390.492 176.816 384.578 176.816 378.221 176.816C378.221 162.374 378.221 148.487 378.221 134.05C381.603 134.05 384.857 134.046 388.112 134.05C402.239 134.068 416.395 133.563 430.481 134.337C437.098 134.701 444.224 136.341 449.999 139.469C465.132 147.666 466.824 167.457 454.117 179.153C453.034 180.149 451.918 181.11 450.638 182.247C453.378 183.975 456.027 185.303 458.276 187.125C466.858 194.078 468.838 203.366 466.79 213.675C464.881 223.286 458.236 229.006 449.346 231.693C443.385 233.495 437.016 234.465 430.783 234.732C419.689 235.206 408.56 234.865 397.145 234.865C397.145 229.738 397.145 225.194 397.145 220.109C406.761 220.109 416.052 220.281 425.331 220.034C429.787 219.916 434.311 219.384 438.642 218.356C443.874 217.115 447.415 213.731 448.362 207.692ZM396.892 158.533C396.892 164.303 396.892 170.073 396.892 175.741C397.939 176.042 398.398 176.286 398.86 176.29C405.011 176.339 411.167 176.519 417.311 176.328C422.602 176.163 427.987 176.09 433.136 175.032C439.802 173.662 443.217 168.905 443.243 162.616C443.269 156.333 439.939 150.951 433.254 150.209C421.33 148.885 409.254 148.924 396.893 148.378C396.893 152.265 396.893 154.905 396.892 158.533Z" fill="#47E522"/>
<path d="M479.178 171.001C479.231 170.526 479.283 170.051 479.773 169.108C482.497 163.805 484.784 158.97 487.071 154.135C487.071 154.135 487.052 154.069 487.357 153.925C488.051 153.104 488.44 152.427 488.828 151.75C488.828 151.75 488.853 151.874 489.13 151.775C491.934 149.125 494.461 146.574 496.988 144.024C496.988 144.024 496.982 143.98 497.364 143.965C501.422 142.15 505.139 140.428 508.756 138.515C510.274 137.712 511.581 136.507 512.984 135.485C513.413 135.336 513.843 135.187 514.89 135.191C517.321 134.737 519.136 134.131 520.95 133.524C521.715 133.394 522.481 133.265 524.009 133.33C537.993 133.517 550.784 135.691 562.949 141.044C562.949 141.044 562.996 140.998 563.084 141.349C564.269 142.274 565.366 142.848 566.463 143.423C566.463 143.423 566.398 143.476 566.495 143.783C567.733 146.401 568.874 148.712 570.016 151.022C570.016 151.022 569.998 150.995 569.808 151.132C569.361 151.476 569.153 151.726 568.996 152.017C568.996 152.017 568.991 151.991 568.802 152.13C568.359 152.481 568.153 152.731 567.995 153.02C567.995 153.02 567.988 152.988 567.8 153.126C567.356 153.47 567.148 153.718 566.986 154.005C566.986 154.005 566.989 153.987 566.735 154.105C566.147 154.681 565.813 155.138 565.479 155.595C565.479 155.595 565.442 155.449 565.278 155.574C564.899 155.99 564.684 156.28 564.468 156.571C564.468 156.571 564.449 156.435 564.276 156.565C563.879 156.983 563.654 157.27 563.43 157.557C563.43 157.557 563.397 157.396 563.241 157.534C562.865 157.97 562.646 158.267 562.427 158.564C562.427 158.564 562.481 158.562 561.992 158.489C560.527 158.428 559.55 158.44 558.573 158.451C558.573 158.451 558.704 158.387 558.592 158.18C557.986 157.646 557.492 157.319 556.998 156.992C556.998 156.992 557.002 156.997 556.908 156.67C556.179 155.597 555.669 154.672 554.891 154.133C542.818 145.766 522.081 145.764 509.94 154.213C508.685 155.087 507.972 156.739 507.007 158.03C507.007 158.03 506.995 157.991 506.727 158.098C505.977 158.812 505.496 159.419 505.014 160.026C505.014 160.026 504.999 159.998 504.674 160.083C503.34 160.991 502.044 161.628 501.365 162.667C494.562 173.087 493.313 184.501 496.706 196.186C497.808 199.979 501.202 203.107 503.548 206.54C503.548 206.54 503.456 206.551 503.512 206.824C504.165 207.665 504.763 208.233 505.361 208.8C505.361 208.8 505.197 208.797 505.311 209.02C506.083 209.754 506.741 210.264 507.399 210.775C507.399 210.775 507.17 210.828 507.332 210.94C507.826 211.255 508.158 211.458 508.489 211.66C508.489 211.66 508.286 211.683 508.442 211.82C508.914 212.168 509.231 212.379 509.547 212.59C509.547 212.59 509.407 212.567 509.506 212.836C510.737 213.741 511.869 214.377 513.001 215.013C513.001 215.013 512.996 215.005 513.19 215.271C514.574 216.034 515.764 216.532 516.954 217.029C516.954 217.029 516.991 216.994 517.237 217.202C518.271 217.631 519.058 217.851 519.846 218.071C519.846 218.071 519.923 218.029 520.189 218.338C530.802 223.068 540.948 220.988 550.997 217.558C551.853 217.266 552.316 215.823 552.962 214.914C553.041 214.474 553.121 214.035 553.483 213.195C553.646 212.21 553.525 211.626 553.404 211.042C553.355 210.588 553.306 210.135 553.609 209.107C553.781 202.755 553.6 196.977 553.42 191.198C551.67 190.63 549.932 189.619 548.168 189.57C541.221 189.38 534.265 189.492 527.102 189.492C527.102 187.291 527.102 185.695 527.102 183.805C541.776 183.805 556.193 183.805 570.986 183.805C570.986 196.745 571.066 209.372 570.861 221.995C570.84 223.256 569.338 225.101 568.083 225.633C560.362 228.906 552.514 231.879 543.949 234.815C542.042 234.578 540.896 234.448 539.746 234.382C532.172 233.942 524.52 234.027 517.048 232.911C511.886 232.14 506.971 229.716 501.946 228.031C501.946 228.031 502.001 228.003 501.8 227.83C501.08 227.43 500.561 227.202 500.042 226.974C500.042 226.974 500.002 227.003 499.875 226.698C499.019 226.083 498.29 225.774 497.561 225.465C497.561 225.465 497.641 225.445 497.588 225.13C496.121 223.839 494.707 222.864 493.294 221.888C493.294 221.888 493.124 221.902 493.019 221.571C492.384 220.807 491.853 220.373 491.322 219.938C491.322 219.938 491.016 219.764 490.912 219.237C489.703 217.596 488.597 216.482 487.491 215.368C487.491 215.368 487.659 215.262 487.566 215.092C487.207 214.645 486.939 214.367 486.671 214.089C486.671 214.089 486.878 214.099 486.768 213.956C486.435 213.539 486.212 213.266 485.989 212.993C485.989 212.993 486.007 212.994 485.975 212.632C485.766 211.635 485.702 210.939 485.396 210.376C479.318 199.198 477.702 187.327 479.676 174.843C479.869 173.619 479.361 172.284 479.178 171.001Z" fill="#47E622"/>
<path d="M371.812 197.044C379.22 208.794 378.271 221.435 377.63 234.013C369.736 236.213 368.658 235.743 365.514 228.564C352.466 198.768 339.431 168.966 326.403 139.162C325.756 137.682 325.221 136.152 324.366 133.957C330.999 133.957 336.935 133.752 342.835 134.125C344.06 134.202 345.597 136.226 346.233 137.683C354.797 157.316 363.226 177.007 371.812 197.044Z" fill="#47E522"/>
<path d="M212.999 264.006C217.33 264.585 221.652 265.264 225.996 265.726C243.118 267.549 258.838 263.657 273.179 254.094C274.487 253.222 276.16 252.898 278.049 252.39C255.189 269.65 229.505 273.318 202.902 263.189C171.637 251.285 154.165 227.662 150.209 194.239C149.961 192.14 149.091 189.691 147.667 188.225C137.614 177.878 139.873 165.675 152.983 159.934C154.289 159.361 155.351 157.834 156.125 156.514C159.146 151.364 162.006 146.12 165.19 140.715C166.018 147.618 159.671 151.562 157.323 157.834C159.195 158.443 160.831 158.976 162.397 159.859C158.575 161.404 154.639 162.214 151.119 163.894C147.094 165.815 145.038 172.644 146.233 177.965C147.513 183.667 150.933 186.443 156.507 187.119C163.516 187.969 166.887 182.946 170.839 178.813C176.82 172.559 182.924 172.485 188.972 179.042C188.318 180.34 187.891 181.307 187.183 182.077C182.484 177.221 178.688 177.466 175.464 183.196C172.429 188.59 168.227 191.856 162.093 192.313C158.986 192.545 158.23 193.892 158.528 196.824C161.387 224.967 175.96 244.461 202.007 255.159C217.441 261.497 233.251 260.615 249.007 255.996C247.537 256.932 246.158 258.47 244.584 258.704C236.066 259.974 227.5 260.921 218.238 261.703C211.422 259.748 205.37 257.73 198.851 258.314C202.826 262.375 207.549 264.136 212.999 264.006Z" fill="#52DF31"/>
<path d="M297.348 232.919C299.27 227.935 301.78 222.893 303.65 217.623C308.495 203.968 311.83 190.361 308.588 175.406C306.444 165.517 303.399 156.42 298.66 147.538C292.734 136.43 283.736 128.414 273.625 121.802C266.562 117.185 258.322 114.35 250.541 110.868C249.083 110.216 247.316 110.095 245.679 110.03C237.906 109.72 230.384 108.383 223.77 104.057C217.811 100.159 212.115 92.4502 214.601 85.4319C216.392 97.8298 225.082 106.058 237.927 107.025C275.861 109.883 307.342 141.059 311.017 179.156C312.899 198.665 308.486 216.482 297.348 232.919Z" fill="#52DF31"/>
<path d="M569.521 250.984C555.271 251 541.475 251 527.352 251C527.352 248.951 527.352 247.256 527.352 245.32C542.017 245.32 556.462 245.32 572.296 245.32C571.395 247.512 570.685 249.24 569.521 250.984Z" fill="#4ADE28"/>
<path d="M215.113 82.7674C214.921 80.4093 214.921 77.7517 214.921 75.1107C197.174 76.9093 188.022 90.497 185.94 106.797C185.693 108.733 184.468 110.543 183.696 112.411C182.254 111.375 180.812 110.339 179.374 108.938C180.582 109.386 181.788 110.199 183.719 111.501C184.761 88.702 195.529 75.097 219.363 72.2954C217.808 76.1928 216.556 79.3303 215.113 82.7674Z" fill="#52DF31"/>
<path d="M179.203 108.132C179.13 108.72 179.017 109.071 178.778 109.273C173.288 113.909 175.219 119.062 177.349 124.533C179.143 129.142 175.697 133.86 169.311 135.984C174.438 131.027 177.234 126.079 173.467 118.053C171.522 113.908 173.545 107.901 173.775 102.736C174.314 102.648 174.853 102.56 175.393 102.472C176.63 104.256 177.867 106.041 179.203 108.132Z" fill="#52DF31"/>
<path d="M507.342 157.936C507.972 156.739 508.685 155.087 509.94 154.213C522.081 145.764 542.818 145.766 554.891 154.133C555.669 154.672 556.179 155.597 556.911 156.671C547.409 150.693 536.998 146.91 525.573 149.947C519.348 151.602 513.626 155.149 507.342 157.936Z" fill="#50D031"/>
<path d="M503.375 206.234C501.202 203.107 497.808 199.979 496.706 196.186C493.313 184.501 494.562 173.087 501.365 162.667C502.044 161.628 503.34 160.991 504.687 160.091C498.457 168.738 494.798 178.489 496.95 189.366C498.08 195.076 501.059 200.42 503.375 206.234Z" fill="#50D031"/>
<path d="M478.973 171.337C479.361 172.284 479.869 173.619 479.676 174.843C477.702 187.327 479.318 199.198 485.396 210.376C485.702 210.939 485.766 211.635 485.972 212.64C478.747 203.536 477.017 192.542 477.412 181.041C477.52 177.906 478.297 174.795 478.973 171.337Z" fill="#50D031"/>
<path d="M562.764 140.76C550.784 135.691 537.993 133.517 524.4 133.354C537.736 131.079 550.62 133.333 562.764 140.76Z" fill="#50D031"/>
<path d="M552.609 215.031C552.316 215.823 551.853 217.266 550.997 217.558C540.948 220.988 530.802 223.068 520.21 218.376C531.038 220.496 541.896 220.53 552.609 215.031Z" fill="#50D031"/>
<path d="M502.118 228.33C506.971 229.716 511.886 232.14 517.048 232.911C524.52 234.027 532.172 233.942 539.746 234.382C540.896 234.448 542.042 234.578 543.535 234.818C529.315 237.465 515.284 236.452 502.118 228.33Z" fill="#50D031"/>
<path d="M553.323 191.638C553.6 196.977 553.781 202.755 553.683 208.771C553.345 203.365 553.286 197.721 553.323 191.638Z" fill="#50D031"/>
<path d="M486.787 154.309C484.784 158.97 482.497 163.805 479.961 168.801C481.975 164.136 484.239 159.31 486.787 154.309Z" fill="#50D031"/>
<path d="M512.635 135.515C511.581 136.507 510.274 137.712 508.756 138.515C505.139 140.428 501.422 142.15 497.385 143.971C502.112 141.176 507.199 138.361 512.635 135.515Z" fill="#50D031"/>
<path d="M496.664 144.113C494.461 146.574 491.934 149.125 489.068 151.787C491.266 149.333 493.803 146.768 496.664 144.113Z" fill="#50D031"/>
<path d="M285.956 246.392C285.389 242.84 287.668 241.294 291.174 240.51C289.777 242.445 288.008 244.341 285.956 246.392Z" fill="#52DF31"/>
<path d="M570.328 150.888C568.874 148.712 567.733 146.401 566.47 143.749C567.993 145.731 573.756 145.65 570.328 150.888Z" fill="#50D031"/>
<path d="M291.827 240.333C293.19 238.096 294.817 235.668 296.767 233.135C295.424 235.4 293.758 237.771 291.827 240.333Z" fill="#52DF31"/>
<path d="M520.604 133.496C519.136 134.131 517.321 134.737 515.234 135.184C516.727 134.505 518.492 133.986 520.604 133.496Z" fill="#50D031"/>
<path d="M278.639 252.436C279.794 251.161 281.276 249.79 283.124 248.443C281.982 249.758 280.474 251.049 278.639 252.436Z" fill="#52DF31"/>
<path d="M487.63 215.676C488.597 216.482 489.703 217.596 490.854 219.071C489.856 218.282 488.813 217.133 487.63 215.676Z" fill="#50D031"/>
<path d="M493.463 222.154C494.707 222.864 496.121 223.839 497.596 225.17C496.315 224.491 494.974 223.455 493.463 222.154Z" fill="#50D031"/>
<path d="M168.724 136.145C168.04 137.472 167.07 138.964 165.755 140.534C166.419 139.178 167.429 137.744 168.724 136.145Z" fill="#52DF31"/>
<path d="M566.274 143.179C565.366 142.848 564.269 142.274 563.065 141.375C564.001 141.679 565.044 142.307 566.274 143.179Z" fill="#50D031"/>
<path d="M512.83 214.744C511.869 214.377 510.737 213.741 509.52 212.766C510.51 213.11 511.584 213.793 512.83 214.744Z" fill="#50D031"/>
<path d="M558.747 158.712C559.55 158.44 560.527 158.428 561.984 158.515C561.284 158.733 560.102 158.853 558.747 158.712Z" fill="#50D031"/>
<path d="M516.754 216.773C515.764 216.532 514.574 216.034 513.186 215.271C514.176 215.508 515.366 216.012 516.754 216.773Z" fill="#50D031"/>
<path d="M488.563 151.891C488.44 152.427 488.051 153.104 487.391 153.921C487.512 153.384 487.905 152.708 488.563 151.891Z" fill="#50D031"/>
<path d="M497.747 225.697C498.29 225.774 499.019 226.083 499.884 226.675C499.324 226.615 498.629 226.272 497.747 225.697Z" fill="#50D031"/>
<path d="M553.317 211.357C553.525 211.626 553.646 212.21 553.583 212.874C553.343 212.527 553.287 212.1 553.317 211.357Z" fill="#50D031"/>
<path d="M491.408 220.19C491.853 220.373 492.384 220.807 493.011 221.487C492.57 221.302 492.032 220.871 491.408 220.19Z" fill="#50D031"/>
<path d="M519.616 217.858C519.058 217.851 518.271 217.631 517.234 217.227C517.785 217.244 518.586 217.445 519.616 217.858Z" fill="#50D031"/>
<path d="M505.252 208.512C504.763 208.233 504.165 207.665 503.509 206.778C504.015 207.047 504.579 207.635 505.252 208.512Z" fill="#50D031"/>
<path d="M507.259 210.493C506.741 210.264 506.083 209.754 505.314 208.939C505.842 209.16 506.48 209.685 507.259 210.493Z" fill="#50D031"/>
<path d="M505.287 159.917C505.496 159.419 505.977 158.812 506.746 158.106C506.541 158.607 506.051 159.208 505.287 159.917Z" fill="#50D031"/>
<path d="M500.185 227.237C500.561 227.202 501.08 227.43 501.803 227.861C501.447 227.876 500.887 227.688 500.185 227.237Z" fill="#50D031"/>
<path d="M565.725 155.447C565.813 155.138 566.147 154.681 566.744 154.105C566.662 154.424 566.317 154.861 565.725 155.447Z" fill="#50D031"/>
<path d="M557.13 157.262C557.492 157.319 557.986 157.646 558.622 158.246C558.263 158.191 557.762 157.862 557.13 157.262Z" fill="#50D031"/>
<path d="M283.549 248.434C283.5 248.222 283.767 247.901 284.294 247.398C284.324 247.586 284.095 247.956 283.549 248.434Z" fill="#52DF31"/>
<path d="M284.594 247.474C284.549 247.27 284.808 246.965 285.325 246.497C285.355 246.68 285.127 247.027 284.594 247.474Z" fill="#52DF31"/>
<path d="M568.24 152.936C568.153 152.731 568.359 152.481 568.815 152.133C568.839 152.282 568.662 152.567 568.24 152.936Z" fill="#50D031"/>
<path d="M569.24 151.933C569.153 151.726 569.361 151.476 569.824 151.136C569.848 151.286 569.666 151.568 569.24 151.933Z" fill="#50D031"/>
<path d="M567.233 153.927C567.148 153.718 567.356 153.47 567.816 153.129C567.84 153.28 567.66 153.565 567.233 153.927Z" fill="#50D031"/>
<path d="M564.71 156.437C564.684 156.28 564.899 155.99 565.352 155.559C565.377 155.713 565.164 156.008 564.71 156.437Z" fill="#50D031"/>
<path d="M563.681 157.433C563.654 157.27 563.879 156.983 564.344 156.559C564.368 156.717 564.149 157.014 563.681 157.433Z" fill="#50D031"/>
<path d="M562.679 158.432C562.646 158.267 562.865 157.97 563.322 157.52C563.35 157.678 563.14 157.989 562.679 158.432Z" fill="#50D031"/>
<path d="M486.736 214.394C486.939 214.367 487.207 214.645 487.618 215.177C487.442 215.187 487.122 214.943 486.736 214.394Z" fill="#50D031"/>
<path d="M508.331 211.403C508.158 211.458 507.826 211.255 507.307 210.825C507.47 210.781 507.822 210.963 508.331 211.403Z" fill="#50D031"/>
<path d="M509.395 212.342C509.231 212.379 508.914 212.168 508.433 211.718C508.593 211.684 508.918 211.889 509.395 212.342Z" fill="#50D031"/>
<path d="M486.045 213.269C486.212 213.266 486.435 213.539 486.762 214.059C486.611 214.052 486.356 213.799 486.045 213.269Z" fill="#50D031"/>
<path d="M249.138 255.811C233.251 260.615 217.441 261.497 202.007 255.159C175.96 244.461 161.387 224.967 158.528 196.824C158.23 193.892 158.986 192.545 162.093 192.313C168.227 191.856 172.429 188.59 175.464 183.196C178.688 177.466 182.484 177.221 187.187 182.077C187.472 182.273 187.485 182.286 187.552 182.586C188.047 183.31 188.474 183.733 188.917 184.111C188.932 184.066 188.841 184.035 188.852 184.334C189.121 184.922 189.379 185.211 189.634 185.425C189.631 185.349 189.479 185.36 189.549 185.704C191.099 188.313 192.58 190.579 194.103 193.099C194.394 193.578 194.643 193.802 194.914 194.321C195.209 194.885 195.481 195.154 195.759 195.321C195.764 195.219 195.559 195.212 195.625 195.51C196.122 196.218 196.553 196.627 196.996 197.019C197.008 197.002 196.967 197.012 197.005 197.32C197.712 198.386 198.38 199.143 199.09 200.156C199.396 200.613 199.66 200.816 200.023 201.338C201.858 203.294 203.594 204.93 205.333 206.625C205.335 206.684 205.454 206.688 205.611 206.959C206.84 207.833 207.911 208.437 208.988 209.016C208.993 208.993 208.955 209.024 209.137 209.321C219.262 215.052 229.699 217.501 241.337 214.875C242.13 214.724 242.564 214.543 243.319 214.401C244.613 214.009 245.587 213.58 246.811 213.181C247.357 213.063 247.653 212.916 248.305 212.785C251.258 211.378 253.855 209.955 256.462 208.514C256.472 208.495 256.514 208.503 256.809 208.389C258.197 207.31 259.29 206.346 260.345 205.374C260.306 205.366 260.295 205.443 260.578 205.35C261.077 204.935 261.293 204.613 261.412 204.291C261.314 204.293 261.32 204.488 261.602 204.382C262.093 203.945 262.304 203.614 262.41 203.29C262.306 203.297 262.324 203.505 262.6 203.405C263.199 202.844 263.523 202.383 263.885 201.923C263.924 201.924 263.923 201.846 264.214 201.772C264.824 201.206 265.143 200.715 265.397 200.24C265.332 200.256 265.368 200.386 265.656 200.217C267.329 197.715 268.714 195.382 270.331 192.866C270.658 192.116 270.754 191.548 271.077 190.71C271.757 188.617 272.21 186.794 272.794 184.66C272.895 183.902 272.867 183.457 272.963 182.589C273.306 176.25 271.793 170.987 267.184 166.528C260.154 159.178 251.316 156.647 241.568 155.285C240.474 155.12 239.731 155.084 238.629 154.882C215.439 151.224 192.717 153.707 168.789 156.594C171.083 152.891 172.768 150.174 174.452 147.457C174.452 147.457 174.355 147.318 174.652 147.297C175.238 147.078 175.386 146.804 175.392 146.454C175.392 146.454 175.445 146.446 175.746 146.331C176.798 145.248 177.548 144.279 178.299 143.311C178.299 143.311 178.175 143.16 178.508 143.192C179.057 142.913 179.273 142.601 179.49 142.29C179.49 142.29 179.794 142.166 180.196 141.934C184.999 138.453 189.4 135.203 194.094 131.856C194.515 131.595 194.641 131.432 194.767 131.268C194.767 131.268 194.908 131.336 195.33 131.259C211.914 123.619 228.565 121.982 245.731 127.198C249.52 128.349 253.21 129.829 256.946 131.158C256.946 131.158 256.918 131.088 257.081 131.369C258.796 132.486 260.348 133.324 261.9 134.161C261.9 134.161 261.914 134.088 262.052 134.395C267.767 139.532 273.343 144.361 278.92 149.19C278.92 149.19 279.037 149.662 279.283 150.106C280.301 151.43 281.073 152.309 281.845 153.189C281.845 153.189 281.865 153.094 281.873 153.397C282.183 153.976 282.485 154.252 282.786 154.527C282.786 154.527 282.812 154.843 282.988 155.27C288.349 164.169 291.792 173.247 292.964 183.165C295.382 203.642 289.532 221.576 276.489 237.336C276.489 237.336 276.447 237.353 276.177 237.488C275.621 238.093 275.336 238.564 275.05 239.034C275.05 239.034 274.999 239.004 274.71 239.156C271.223 242.156 268.026 245.004 264.828 247.853C264.828 247.853 264.909 247.917 264.54 247.92C259.49 250.439 254.81 252.956 250.129 255.473L249.678 255.431C249.678 255.431 249.27 255.627 249.138 255.811ZM211.647 229.226C201.967 234.251 192.233 235.483 182.01 229.428C184.946 233.06 188.002 236.011 191.605 237.939C199.356 242.088 207.637 243.481 216.049 239.953C220.316 238.164 221.73 234.316 220.167 230.592C218.338 226.234 215.341 227.608 211.647 229.226Z" fill="#FAFEF9"/>
<path d="M189.199 178.711C182.924 172.485 176.82 172.559 170.839 178.813C166.888 182.946 163.516 187.969 156.507 187.119C150.933 186.443 147.513 183.667 146.233 177.965C145.038 172.644 147.094 165.815 151.119 163.894C154.639 162.214 158.575 161.404 162.656 160.014C163.678 159.765 164.37 159.712 165.844 159.691C180.8 158.73 194.972 157.738 209.597 156.78C222.669 158.696 235.387 160.113 247.842 162.768C251.179 163.479 255.666 167.585 256.283 170.779C259.158 185.659 251.923 200.393 237.073 205.573C226.312 209.326 216.421 206.491 207.011 200.282C204.891 198.373 202.929 196.726 200.803 194.797C199.391 193.007 198.144 191.497 196.808 189.71C196.206 188.856 195.692 188.28 195.051 187.393C193.015 184.291 191.107 181.501 189.199 178.711ZM204.326 176.402C205.319 178.723 205.737 182.143 207.47 183.051C209.151 183.93 212.183 182.228 215.084 181.084C216.971 177.434 215.889 174.511 212.434 172.791C209.061 171.111 206.375 172.372 204.326 176.402ZM236.218 176.005C232.445 175.847 229.31 177.44 228.861 181.129C228.574 183.482 229.644 187.032 231.382 188.313C233.144 189.611 236.866 189.609 238.997 188.612C240.674 187.828 242.448 184.354 242.006 182.632C241.384 180.203 238.755 178.289 236.218 176.005ZM154.677 168.361C154.228 169.197 153.96 170.54 153.297 170.777C150.825 171.659 148.399 173.235 150.266 175.619C152.168 178.049 155.385 179.688 158.346 180.889C159.115 181.201 160.979 178.455 162.506 177.343C165.167 175.405 165.414 173.587 162.768 171.43C161.961 170.773 161.326 169.813 160.837 168.874C159.356 166.029 157.543 165.3 154.677 168.361ZM215.711 197.871C218.396 197.278 221.649 197.387 223.561 195.84C224.798 194.838 224.94 190.936 223.987 189.209C223.042 187.498 220.015 185.888 218.073 186.07C216.11 186.254 213.137 188.467 212.821 190.196C212.414 192.421 214.212 195.049 215.711 197.871ZM219.041 166.995C218.803 172.971 222.363 176.565 226.628 174.286C228.364 173.358 230.347 170.79 230.249 169.082C230.135 167.103 228.058 163.908 226.466 163.666C224.278 163.334 221.744 165.281 219.041 166.995Z" fill="#8EFB74"/>
<path d="M209.145 156.745C194.972 157.738 180.8 158.73 166.187 159.634C168.421 155.546 171.096 151.548 174.111 147.503C172.768 150.174 171.083 152.891 168.789 156.594C192.717 153.707 215.439 151.224 238.276 155.064C230.492 155.235 222.701 154.93 214.912 154.972C212.986 154.983 211.067 156.124 209.145 156.745Z" fill="#67E64A"/>
<path d="M276.796 237.488C289.532 221.576 295.382 203.642 292.964 183.165C291.792 173.247 288.349 164.169 283.125 155.35C284.536 156.627 286.398 158.038 287.372 159.91C294.1 172.838 296.838 186.24 294.558 201.053C292.786 212.557 289.156 222.83 282.521 232.218C281.675 233.416 281.373 235.049 280.403 236.092C279.635 236.917 278.227 237.146 276.796 237.488Z" fill="#52DF31"/>
<path d="M256.78 130.851C253.21 129.829 249.52 128.349 245.731 127.198C228.565 121.982 211.914 123.619 195.366 131.19C198.723 128.918 202.209 125.479 206.258 124.584C216.833 122.246 227.63 120.049 238.477 123.584C244.084 125.412 249.7 127.214 255.284 129.109C255.827 129.294 256.174 130.053 256.78 130.851Z" fill="#52DF31"/>
<path d="M213.172 263.699C207.549 264.136 202.826 262.375 198.851 258.314C205.37 257.73 211.422 259.748 217.777 261.708C216.467 262.456 214.906 262.924 213.172 263.699Z" fill="#44ED1E"/>
<path d="M278.917 148.821C273.343 144.361 267.767 139.532 262.019 134.412C264.364 133.514 266.239 133.647 268.128 136.187C270.328 139.144 273.671 141.223 276.277 143.917C277.457 145.138 278.054 146.923 278.917 148.821Z" fill="#52DF31"/>
<path d="M193.8 131.953C189.4 135.203 184.999 138.453 180.273 141.789C179.519 139.179 179.92 137.463 183.2 136.545C186.433 135.64 189.309 133.458 192.892 131.805C193.443 131.773 193.8 131.953 193.8 131.953Z" fill="#67E64A"/>
<path d="M250.562 255.574C254.81 252.956 259.49 250.439 264.52 247.872C261.724 253.053 256.631 254.844 250.562 255.574Z" fill="#52DF31"/>
<path d="M265.197 247.861C268.026 245.004 271.223 242.156 274.728 239.179C273.878 244.136 269.775 246.06 265.197 247.861Z" fill="#52DF31"/>
<path d="M261.805 133.822C260.348 133.324 258.796 132.486 257.047 131.383C258.47 131.906 260.09 132.694 261.805 133.822Z" fill="#52DF31"/>
<path d="M269.963 250.017C270.2 249.289 270.588 248.703 270.975 248.118C271.212 248.324 271.45 248.53 271.687 248.736C271.162 249.211 270.637 249.685 269.963 250.017Z" fill="#52DF31"/>
<path d="M177.954 143.326C177.548 144.279 176.798 145.248 175.75 146.305C176.171 145.376 176.89 144.359 177.954 143.326Z" fill="#67E64A"/>
<path d="M281.85 152.857C281.073 152.309 280.301 151.43 279.472 150.259C280.228 150.82 281.041 151.672 281.85 152.857Z" fill="#52DF31"/>
<path d="M296.033 225.771C296.064 225.772 296.001 225.769 296.033 225.771Z" fill="#52DF31"/>
<path d="M281.767 145.968C281.896 145.847 282.021 145.822 282.146 145.797C282.018 145.886 281.89 145.975 281.767 145.968Z" fill="#52DF31"/>
<path d="M275.311 238.92C275.336 238.564 275.621 238.093 276.17 237.509C276.146 237.866 275.859 238.336 275.311 238.92Z" fill="#52DF31"/>
<path d="M194.094 131.856C193.8 131.953 193.443 131.773 193.257 131.701C193.44 131.516 193.81 131.402 194.473 131.279C194.641 131.432 194.515 131.595 194.094 131.856Z" fill="#52DF31"/>
<path d="M179.225 142.383C179.273 142.601 179.057 142.913 178.551 143.28C178.494 143.049 178.727 142.763 179.225 142.383Z" fill="#67E64A"/>
<path d="M282.675 154.249C282.485 154.252 282.183 153.976 281.825 153.388C282.034 153.374 282.299 153.672 282.675 154.249Z" fill="#52DF31"/>
<path d="M175.166 146.533C175.386 146.804 175.238 147.078 174.718 147.349C174.506 147.078 174.657 146.808 175.166 146.533Z" fill="#67E64A"/>
<path d="M196.897 189.988C198.144 191.497 199.391 193.007 200.842 195.138C199.646 197.294 206.431 200.575 199.924 201.019C199.66 200.816 199.396 200.613 199.055 199.835C198.308 198.51 197.638 197.761 196.967 197.012C196.967 197.012 197.008 197.002 196.913 196.73C196.398 196.042 195.978 195.627 195.559 195.212C195.559 195.212 195.764 195.219 195.67 195.055C195.348 194.603 195.12 194.315 194.891 194.026C194.643 193.802 194.394 193.578 194.099 192.729C192.529 189.856 191.004 187.608 189.479 185.36C189.479 185.36 189.631 185.349 189.561 185.149C189.275 184.645 189.058 184.34 188.841 184.035C188.841 184.035 188.932 184.066 188.846 183.811C188.334 183.133 187.909 182.709 187.485 182.286C187.485 182.286 187.472 182.273 187.468 182.273C187.891 181.307 188.318 180.34 188.972 179.042C191.107 181.501 193.015 184.291 195.105 187.696C195.824 188.87 196.36 189.429 196.897 189.988Z" fill="#47EC21"/>
<path d="M174.51 111.51C174.531 111.502 174.489 111.519 174.51 111.51Z" fill="#45ED1E"/>
<path d="M209.597 156.78C211.067 156.124 212.986 154.983 214.912 154.972C222.701 154.93 230.492 155.235 238.636 155.231C239.731 155.084 240.474 155.12 241.755 155.566C250.427 159.135 259.286 160.733 266.053 167.324C268.354 172.79 270.596 177.901 272.838 183.012C272.867 183.457 272.895 183.902 272.513 184.81C271.685 187.175 271.267 189.078 270.85 190.98C270.754 191.548 270.658 192.116 269.973 192.937C265.866 194.374 264.511 196.763 265.368 200.386C265.368 200.386 265.332 200.256 265.133 200.365C264.597 200.931 264.26 201.389 263.923 201.846C263.923 201.846 263.924 201.924 263.622 202.037C262.988 202.602 262.656 203.053 262.324 203.505C262.324 203.505 262.306 203.297 262.157 203.433C261.778 203.876 261.549 204.182 261.32 204.488C261.32 204.488 261.314 204.293 261.157 204.426C260.766 204.854 260.53 205.149 260.295 205.443C260.295 205.443 260.306 205.366 259.963 205.331C258.585 206.365 257.549 207.434 256.514 208.503C256.514 208.503 256.472 208.495 256.082 208.434C253.111 209.838 250.53 211.303 247.949 212.768C247.653 212.916 247.357 213.063 246.471 213.148C244.92 213.511 243.959 213.937 242.998 214.363C242.564 214.543 242.13 214.724 240.968 214.7C233.107 213.621 225.948 212.912 218.852 211.8C215.491 211.273 212.25 209.973 208.955 209.024C208.955 209.024 208.993 208.993 208.928 208.656C207.727 207.775 206.59 207.232 205.454 206.688C205.454 206.688 205.335 206.684 205.471 206.199C206.128 203.991 206.649 202.267 207.169 200.543C216.421 206.491 226.312 209.326 237.073 205.573C251.923 200.393 259.158 185.659 256.283 170.779C255.666 167.585 251.179 163.479 247.842 162.768C235.387 160.113 222.669 158.696 209.597 156.78Z" fill="#47EC21"/>
<path d="M211.99 229.077C215.341 227.608 218.338 226.234 220.167 230.592C221.73 234.316 220.316 238.164 216.049 239.953C207.637 243.481 199.356 242.088 191.605 237.939C188.002 236.011 184.946 233.06 182.01 229.428C192.233 235.483 201.967 234.251 211.99 229.077Z" fill="#9BFB84"/>
<path d="M209.137 209.321C212.25 209.973 215.491 211.273 218.852 211.8C225.948 212.912 233.107 213.621 240.61 214.671C229.699 217.501 219.262 215.052 209.137 209.321Z" fill="#52DF31"/>
<path d="M265.993 166.969C259.286 160.733 250.427 159.135 242.106 155.696C251.316 156.647 260.154 159.178 266.856 166.568C266.433 166.94 266.213 166.954 265.993 166.969Z" fill="#67E64A"/>
<path d="M207.011 200.282C206.649 202.267 206.128 203.991 205.469 206.14C203.594 204.93 201.858 203.294 200.023 201.338C206.431 200.575 199.646 197.294 201.007 195.419C202.929 196.726 204.891 198.373 207.011 200.282Z" fill="#52DF31"/>
<path d="M266.053 167.324C266.213 166.954 266.433 166.94 266.98 166.885C271.793 170.987 273.306 176.25 272.963 182.589C270.596 177.901 268.354 172.79 266.053 167.324Z" fill="#52DF31"/>
<path d="M265.656 200.217C264.511 196.763 265.865 194.374 269.741 193.12C268.714 195.382 267.329 197.715 265.656 200.217Z" fill="#52DF31"/>
<path d="M248.305 212.785C250.53 211.303 253.111 209.838 256.072 208.453C253.855 209.955 251.258 211.378 248.305 212.785Z" fill="#52DF31"/>
<path d="M189.549 185.704C191.004 187.608 192.529 189.856 194.057 192.474C192.58 190.579 191.099 188.313 189.549 185.704Z" fill="#52DF31"/>
<path d="M271.077 190.71C271.267 189.078 271.685 187.175 272.383 185.122C272.21 186.794 271.757 188.617 271.077 190.71Z" fill="#52DF31"/>
<path d="M256.809 208.389C257.549 207.434 258.585 206.365 260.002 205.339C259.29 206.346 258.197 207.31 256.809 208.389Z" fill="#52DF31"/>
<path d="M205.611 206.959C206.59 207.232 207.727 207.775 208.923 208.68C207.911 208.437 206.84 207.833 205.611 206.959Z" fill="#52DF31"/>
<path d="M197.005 197.32C197.638 197.761 198.308 198.51 199.013 199.579C198.38 199.143 197.712 198.386 197.005 197.32Z" fill="#52DF31"/>
<path d="M243.319 214.401C243.959 213.937 244.92 213.511 246.221 213.118C245.587 213.58 244.613 214.009 243.319 214.401Z" fill="#52DF31"/>
<path d="M187.552 182.586C187.909 182.709 188.334 183.133 188.83 183.856C188.474 183.733 188.047 183.31 187.552 182.586Z" fill="#52DF31"/>
<path d="M262.6 203.405C262.656 203.053 262.988 202.602 263.583 202.037C263.523 202.383 263.199 202.844 262.6 203.405Z" fill="#52DF31"/>
<path d="M264.214 201.772C264.26 201.389 264.597 200.931 265.198 200.348C265.143 200.715 264.824 201.206 264.214 201.772Z" fill="#52DF31"/>
<path d="M195.625 195.51C195.978 195.627 196.398 196.042 196.901 196.747C196.553 196.627 196.122 196.218 195.625 195.51Z" fill="#52DF31"/>
<path d="M188.852 184.334C189.058 184.34 189.275 184.645 189.564 185.225C189.379 185.211 189.121 184.922 188.852 184.334Z" fill="#52DF31"/>
<path d="M194.914 194.321C195.12 194.315 195.348 194.603 195.665 195.157C195.481 195.154 195.209 194.885 194.914 194.321Z" fill="#52DF31"/>
<path d="M261.602 204.382C261.549 204.182 261.778 203.876 262.261 203.426C262.304 203.614 262.093 203.945 261.602 204.382Z" fill="#52DF31"/>
<path d="M260.578 205.35C260.53 205.149 260.766 204.854 261.255 204.425C261.293 204.613 261.077 204.935 260.578 205.35Z" fill="#52DF31"/>
<path d="M236.601 176.08C238.755 178.289 241.384 180.203 242.006 182.632C242.448 184.354 240.674 187.828 238.997 188.612C236.866 189.609 233.144 189.611 231.382 188.313C229.644 187.032 228.574 183.482 228.861 181.129C229.31 177.44 232.445 175.847 236.601 176.08Z" fill="#2A551F"/>
<path d="M154.865 168.039C157.543 165.3 159.356 166.029 160.837 168.874C161.326 169.813 161.961 170.773 162.768 171.43C165.414 173.587 165.167 175.405 162.506 177.343C160.979 178.455 159.115 181.201 158.346 180.889C155.385 179.688 152.168 178.049 150.266 175.619C148.399 173.235 150.825 171.659 153.297 170.777C153.96 170.54 154.228 169.197 154.865 168.039Z" fill="#2C5A22"/>
<path d="M215.386 197.687C214.212 195.049 212.414 192.421 212.821 190.196C213.137 188.467 216.11 186.254 218.073 186.07C220.015 185.888 223.042 187.498 223.987 189.209C224.94 190.936 224.798 194.838 223.561 195.84C221.649 197.387 218.396 197.278 215.386 197.687Z" fill="#2A551F"/>
<path d="M219.2 166.623C221.744 165.281 224.278 163.334 226.466 163.666C228.058 163.908 230.135 167.103 230.249 169.082C230.347 170.79 228.364 173.358 226.628 174.286C222.363 176.565 218.803 172.971 219.2 166.623Z" fill="#2A561F"/>
<path d="M204.799 175.828C206.375 172.372 209.061 171.111 212.434 172.791C215.889 174.511 216.971 177.434 214.69 181.199C214.296 181.315 213.968 180.973 213.979 180.575C213.279 173.718 211.617 172.96 205.094 176.083C204.996 175.998 204.799 175.828 204.799 175.828Z" fill="#2A651B"/>
<path d="M214.459 181.487C212.183 182.228 209.151 183.93 207.47 183.051C205.737 182.143 205.319 178.723 204.562 176.115C204.799 175.828 204.996 175.998 205.091 176.431C206.301 182.107 209.702 182.466 213.968 180.973C213.968 180.973 214.296 181.315 214.459 181.487Z" fill="#2A651B"/>
<path d="M196.808 189.71C196.36 189.429 195.824 188.87 195.233 188.008C195.692 188.28 196.206 188.856 196.808 189.71Z" fill="#52DF31"/>
<path d="M213.979 180.575C209.702 182.466 206.301 182.107 205.189 176.516C211.617 172.96 213.279 173.718 213.979 180.575Z" fill="#2B4923"/>
</svg>
